<svg id="Layer_1" data-name="Layer 1" xmlns="http://www.w3.org/2000/svg" xmlns:xlink="http://www.w3.org/1999/xlink" viewBox="0 0 471.35 184.64"><defs><style>.cls-1{fill:none;}.cls-2{font-size:140px;fill:#1072ba;font-family:RosewoodStd-Regular, Rosewood Std;}.cls-3{letter-spacing:-0.02em;}.cls-4{letter-spacing:0em;}.cls-5{letter-spacing:0.02em;}.cls-6{letter-spacing:-0.05em;}.cls-7{fill:#b9539f;stroke:#059d9f;stroke-miterlimit:10;stroke-width:4.03px;}.cls-8{isolation:isolate;}.cls-9{clip-path:url(#clip-path);}.cls-10{fill:#8e0909;}.cls-11{fill:#8a0707;}.cls-12{clip-path:url(#clip-path-2);}.cls-13{fill:#d51e23;}.cls-14{clip-path:url(#clip-path-3);}.cls-15{clip-path:url(#clip-path-4);}.cls-16{clip-path:url(#clip-path-5);}.cls-17{clip-path:url(#clip-path-6);}.cls-18{clip-path:url(#clip-path-7);}.cls-19{clip-path:url(#clip-path-8);}.cls-20{clip-path:url(#clip-path-9);}.cls-21{clip-path:url(#clip-path-10);}.cls-22{clip-path:url(#clip-path-11);}.cls-23{clip-path:url(#clip-path-12);}.cls-24{clip-path:url(#clip-path-13);}.cls-25{clip-path:url(#clip-path-14);}.cls-26{clip-path:url(#clip-path-15);}.cls-27{clip-path:url(#clip-path-16);}.cls-28{clip-path:url(#clip-path-17);}.cls-29{fill:#90330a;}.cls-30{clip-path:url(#clip-path-18);}.cls-31{clip-path:url(#clip-path-19);}.cls-32{fill:#d95222;}.cls-33{fill:#8d3107;}.cls-34{clip-path:url(#clip-path-20);}.cls-35{clip-path:url(#clip-path-21);}.cls-36{clip-path:url(#clip-path-22);}.cls-37{clip-path:url(#clip-path-23);}.cls-38{fill:#8d3208;}.cls-39{clip-path:url(#clip-path-24);}.cls-40{clip-path:url(#clip-path-25);}.cls-41{clip-path:url(#clip-path-26);}.cls-42{clip-path:url(#clip-path-27);}.cls-43{clip-path:url(#clip-path-28);}.cls-44{clip-path:url(#clip-path-29);}.cls-45{clip-path:url(#clip-path-30);}</style><clipPath id="clip-path" transform="translate(-15.45 1.19)"><path class="cls-1" d="M128.13,156.69l-2.62,3.49.17-.24a4.37,4.37,0,0,0,.69-2.41,4.25,4.25,0,0,0-.71-2.36,3.93,3.93,0,0,0-1.85-1.51,11.1,11.1,0,0,0-3.8-.46l2.61-3.49a11.1,11.1,0,0,1,3.8.46,4,4,0,0,1,1.85,1.51,4.28,4.28,0,0,1,.71,2.37,4.37,4.37,0,0,1-.69,2.4A2.5,2.5,0,0,1,128.13,156.69Z"/></clipPath><clipPath id="clip-path-2" transform="translate(-15.45 1.19)"><path class="cls-1" d="M130.36,158.2l-2.61,3.49a6.13,6.13,0,0,1-2.52,2,13,13,0,0,1-5.08.83l2.61-3.49a12.84,12.84,0,0,0,5.08-.83A6.13,6.13,0,0,0,130.36,158.2Z"/></clipPath><clipPath id="clip-path-3" transform="translate(-15.45 1.19)"><path class="cls-1" d="M152.88,161.52,150.26,165a7.82,7.82,0,0,0-1.44-3.14,6.86,6.86,0,0,0-2.49-1.89,7.63,7.63,0,0,0-3.25-.72,7,7,0,0,0-4.83,1.8l2.61-3.48a7,7,0,0,1,4.83-1.81,7.63,7.63,0,0,1,3.25.72,6.86,6.86,0,0,1,2.49,1.89A8,8,0,0,1,152.88,161.52Z"/></clipPath><clipPath id="clip-path-4" transform="translate(-15.45 1.19)"><path class="cls-1" d="M137.47,161.91l2.61-3.49a5.79,5.79,0,0,1,.78-.85l-2.61,3.48A5.87,5.87,0,0,0,137.47,161.91Z"/></clipPath><clipPath id="clip-path-5" transform="translate(-15.45 1.19)"><path class="cls-1" d="M151.91,168.14l-2.61,3.49a15.43,15.43,0,0,0,1-1.49l2.61-3.49A14.28,14.28,0,0,1,151.91,168.14Z"/></clipPath><clipPath id="clip-path-6" transform="translate(-15.45 1.19)"><path class="cls-1" d="M153.78,169.68l-2.61,3.49a9.6,9.6,0,0,1-1.15,1.29,9.5,9.5,0,0,1-3,1.86,10.46,10.46,0,0,1-3.79.64,9.16,9.16,0,0,1-7.31-3.06,10.37,10.37,0,0,1-2.66-6.92,10.13,10.13,0,0,1,2.07-6.29L138,157.2a10.15,10.15,0,0,0-2.07,6.29,10.37,10.37,0,0,0,2.66,6.92,9.17,9.17,0,0,0,7.31,3.06,10.68,10.68,0,0,0,3.79-.63,9.35,9.35,0,0,0,3-1.87A9.6,9.6,0,0,0,153.78,169.68Z"/></clipPath><clipPath id="clip-path-7" transform="translate(-15.45 1.19)"><path class="cls-1" d="M160.6,162.41l2.61-3.49a8.28,8.28,0,0,1,.84-.95,7.93,7.93,0,0,1,5.79-2.25,8.26,8.26,0,0,1,6.91,3.35l-2.61,3.49a8.23,8.23,0,0,0-6.91-3.35,7.93,7.93,0,0,0-5.79,2.25A8.28,8.28,0,0,0,160.6,162.41Z"/></clipPath><clipPath id="clip-path-8" transform="translate(-15.45 1.19)"><path class="cls-1" d="M178.43,169.57l-2.61,3.49a9.12,9.12,0,0,1-3.37,2.76A11.55,11.55,0,0,1,167.2,177a10.44,10.44,0,0,1-7.53-2.88,9.4,9.4,0,0,1-3-7,10,10,0,0,1,1.39-5.15,9,9,0,0,1,.64-1l2.61-3.49a10.84,10.84,0,0,0-.64,1,10,10,0,0,0-1.39,5.15,9.38,9.38,0,0,0,3,7,10.46,10.46,0,0,0,7.53,2.88,11.52,11.52,0,0,0,5.25-1.14A9.12,9.12,0,0,0,178.43,169.57Z"/></clipPath><clipPath id="clip-path-9" transform="translate(-15.45 1.19)"><path class="cls-1" d="M191.23,162.22l2.61-3.48a7.34,7.34,0,0,1,2.19-2,7.44,7.44,0,0,1,3.78-1,7.23,7.23,0,0,1,5.38,2.23,7.62,7.62,0,0,1,2.2,5.53,7.77,7.77,0,0,1-.95,3.9l-2.61,3.49a7.78,7.78,0,0,0,.95-3.91,7.62,7.62,0,0,0-2.2-5.53,7.26,7.26,0,0,0-5.38-2.22,7.44,7.44,0,0,0-3.78,1A7.18,7.18,0,0,0,191.23,162.22Z"/></clipPath><clipPath id="clip-path-10" transform="translate(-15.45 1.19)"><path class="cls-1" d="M205.93,168.23l-2.61,3.48a8.74,8.74,0,0,0,.51-.78l2.61-3.49A8.92,8.92,0,0,1,205.93,168.23Z"/></clipPath><clipPath id="clip-path-11" transform="translate(-15.45 1.19)"><path class="cls-1" d="M189.06,161l2.61-3.49a9.56,9.56,0,0,0-1.9,5.93,9.9,9.9,0,0,0,2.89,7.15,9.36,9.36,0,0,0,6.94,2.93,9.25,9.25,0,0,0,4.2-.95,10.38,10.38,0,0,0,3.45-2.82l-2.61,3.49a10.38,10.38,0,0,1-3.45,2.82,9.25,9.25,0,0,1-4.2,1,9.4,9.4,0,0,1-6.94-2.93,9.9,9.9,0,0,1-2.89-7.15A9.56,9.56,0,0,1,189.06,161Z"/></clipPath><clipPath id="clip-path-12" transform="translate(-15.45 1.19)"><path class="cls-1" d="M217.62,149.27,215,152.76a2.2,2.2,0,0,1-.2.23,1.93,1.93,0,0,1-1.43.59,2,2,0,0,1-2-2,2,2,0,0,1,.38-1.2l2.61-3.49a2,2,0,0,0-.38,1.2,2,2,0,0,0,2,2,1.94,1.94,0,0,0,1.43-.6A2.2,2.2,0,0,0,217.62,149.27Z"/></clipPath><clipPath id="clip-path-13" transform="translate(-15.45 1.19)"><path class="cls-1" d="M236.75,161.61l2.61-3.49a5.65,5.65,0,0,1,1.31-1.27,5.49,5.49,0,0,1,3.26-1,4.41,4.41,0,0,1,2.52.7,3.74,3.74,0,0,1,1.51,1.85,13.88,13.88,0,0,1,.45,4.22l-2.61,3.48a14,14,0,0,0-.45-4.22,3.83,3.83,0,0,0-1.51-1.85,4.49,4.49,0,0,0-2.52-.7,5.49,5.49,0,0,0-3.26,1.05A5.9,5.9,0,0,0,236.75,161.61Z"/></clipPath><clipPath id="clip-path-14" transform="translate(-15.45 1.19)"><path class="cls-1" d="M235.64,160.14l2.61-3.49a11.79,11.79,0,0,0-.85,1.34l-2.61,3.49A11,11,0,0,1,235.64,160.14Z"/></clipPath><clipPath id="clip-path-15" transform="translate(-15.45 1.19)"><path class="cls-1" d="M223.71,161.64l2.62-3.49a5.63,5.63,0,0,1,1.38-1.33,5.47,5.47,0,0,1,3.18-1,4.37,4.37,0,0,1,2.54.74,3.94,3.94,0,0,1,1.51,2,16.68,16.68,0,0,1,.45,4.68l-2.61,3.49a16.82,16.82,0,0,0-.45-4.69,3.91,3.91,0,0,0-1.51-2,4.41,4.41,0,0,0-2.55-.75,5.47,5.47,0,0,0-3.17,1A5.86,5.86,0,0,0,223.71,161.64Z"/></clipPath><clipPath id="clip-path-16" transform="translate(-15.45 1.19)"><path class="cls-1" d="M222.43,160.34l2.61-3.48-.24.34-2.61,3.49Z"/></clipPath><clipPath id="clip-path-17" transform="translate(-15.45 1.19)"><path class="cls-1" d="M285.77,162.38l2.61-3.49a8.82,8.82,0,0,1,.7-.81,7.23,7.23,0,0,1,10.52,0,7.58,7.58,0,0,1,2.24,5.46,7.89,7.89,0,0,1-1,3.87l-2.61,3.48a7.71,7.71,0,0,0,1-3.86,7.55,7.55,0,0,0-2.23-5.47,7.25,7.25,0,0,0-10.52,0A10.5,10.5,0,0,0,285.77,162.38Z"/></clipPath><clipPath id="clip-path-18" transform="translate(-15.45 1.19)"><path class="cls-1" d="M300.28,168.28l-2.61,3.49a8.76,8.76,0,0,0,.56-.88l2.61-3.48A7.62,7.62,0,0,1,300.28,168.28Z"/></clipPath><clipPath id="clip-path-19" transform="translate(-15.45 1.19)"><path class="cls-1" d="M302.34,169.55,299.73,173a9.61,9.61,0,0,1-.78.93,9.3,9.3,0,0,1-7.15,3,9.41,9.41,0,0,1-7.2-3,10,10,0,0,1-2.81-7,9.8,9.8,0,0,1,2-6.08l2.61-3.49a9.8,9.8,0,0,0-2,6.08,10,10,0,0,0,2.81,7,9.41,9.41,0,0,0,7.2,3,9.3,9.3,0,0,0,7.15-3A8.36,8.36,0,0,0,302.34,169.55Z"/></clipPath><clipPath id="clip-path-20" transform="translate(-15.45 1.19)"><path class="cls-1" d="M321.66,168.93,319,172.42a4.94,4.94,0,0,0,.75-1.44,18.8,18.8,0,0,0,.36-4.68l2.61-3.49a18.9,18.9,0,0,1-.36,4.69A4.86,4.86,0,0,1,321.66,168.93Z"/></clipPath><clipPath id="clip-path-21" transform="translate(-15.45 1.19)"><path class="cls-1" d="M323.57,170.56,321,174.05a7,7,0,0,1-2,1.78,8.67,8.67,0,0,1-4.64,1.13,8.82,8.82,0,0,1-4.66-1.13,7,7,0,0,1-2.8-3.16,15.38,15.38,0,0,1-.94-6.09l2.61-3.48a15.33,15.33,0,0,0,.94,6.08,7,7,0,0,0,2.8,3.16,8.82,8.82,0,0,0,4.66,1.13,8.67,8.67,0,0,0,4.64-1.13A6.86,6.86,0,0,0,323.57,170.56Z"/></clipPath><clipPath id="clip-path-22" transform="translate(-15.45 1.19)"><path class="cls-1" d="M331.28,160.93l2.61-3.49a4.47,4.47,0,0,1,.58-.64,3.55,3.55,0,0,1,2.37-1,3.38,3.38,0,0,1,1.31.33l-2.62,3.49a3.34,3.34,0,0,0-1.3-.34,3.57,3.57,0,0,0-2.37,1A4.47,4.47,0,0,0,331.28,160.93Z"/></clipPath><clipPath id="clip-path-23" transform="translate(-15.45 1.19)"><path class="cls-1" d="M330,159.7l2.61-3.48-.34.47-2.61,3.49Z"/></clipPath><clipPath id="clip-path-24" transform="translate(-15.45 1.19)"><path class="cls-1" d="M350.6,160.39l2.62-3.48a2.8,2.8,0,0,1,.37-.41,2.9,2.9,0,0,1,2-.79,5.71,5.71,0,0,1,3.87,1.91l-2.61,3.49a5.72,5.72,0,0,0-3.87-1.92,2.9,2.9,0,0,0-2,.79A3.55,3.55,0,0,0,350.6,160.39Z"/></clipPath><clipPath id="clip-path-25" transform="translate(-15.45 1.19)"><path class="cls-1" d="M358.22,169.69l-2.61,3.49a2.75,2.75,0,0,0,.58-1.72,2.9,2.9,0,0,0-.7-1.88,11,11,0,0,0-3.1-2,9.76,9.76,0,0,1-3.53-2.63,5.21,5.21,0,0,1,0-6l2.61-3.49a5.23,5.23,0,0,0,0,6,10,10,0,0,0,3.53,2.63,11.06,11.06,0,0,1,3.1,2,2.9,2.9,0,0,1,.7,1.88A2.75,2.75,0,0,1,358.22,169.69Z"/></clipPath><clipPath id="clip-path-26" transform="translate(-15.45 1.19)"><path class="cls-1" d="M360.07,171.18l-2.61,3.48a7.32,7.32,0,0,1-.58.67,5.65,5.65,0,0,1-4.12,1.63,7.2,7.2,0,0,1-3.16-.72,6.88,6.88,0,0,1-2.5-2l2.61-3.49a6.9,6.9,0,0,0,2.5,2,7.33,7.33,0,0,0,3.16.71,5.61,5.61,0,0,0,4.12-1.63A7.21,7.21,0,0,0,360.07,171.18Z"/></clipPath><clipPath id="clip-path-27" transform="translate(-15.45 1.19)"><path class="cls-1" d="M420.18,161.52,417.57,165a8.26,8.26,0,0,0-1.45-3.14,6.86,6.86,0,0,0-2.49-1.89,7.67,7.67,0,0,0-3.26-.72,7,7,0,0,0-4.82,1.8l2.61-3.48a7,7,0,0,1,4.82-1.81,7.64,7.64,0,0,1,3.26.72,6.77,6.77,0,0,1,2.49,1.89A8.23,8.23,0,0,1,420.18,161.52Z"/></clipPath><clipPath id="clip-path-28" transform="translate(-15.45 1.19)"><path class="cls-1" d="M404.77,161.91l2.61-3.49a5.79,5.79,0,0,1,.78-.85l-2.61,3.48A5.87,5.87,0,0,0,404.77,161.91Z"/></clipPath><clipPath id="clip-path-29" transform="translate(-15.45 1.19)"><path class="cls-1" d="M419.21,168.14l-2.61,3.49c.31-.43.64-.92,1-1.49l2.61-3.49C419.85,167.22,419.53,167.72,419.21,168.14Z"/></clipPath><clipPath id="clip-path-30" transform="translate(-15.45 1.19)"><path class="cls-1" d="M421.09,169.66l-2.61,3.49a10,10,0,0,1-1.17,1.31,9.39,9.39,0,0,1-3,1.86,10.39,10.39,0,0,1-3.77.64,9.19,9.19,0,0,1-7.33-3.06,10.37,10.37,0,0,1-2.66-6.92,10.13,10.13,0,0,1,2.07-6.29l2.61-3.49a10.22,10.22,0,0,0-2.07,6.29,10.37,10.37,0,0,0,2.66,6.92,9.19,9.19,0,0,0,7.33,3.06,10.61,10.61,0,0,0,3.77-.63,9.38,9.38,0,0,0,4.16-3.18Z"/></clipPath></defs><title>main.-logo</title><text class="cls-2" transform="translate(0 108.22)"><tspan class="cls-3">R</tspan><tspan class="cls-4" x="89.04" y="0">e</tspan><tspan class="cls-5" x="161.14" y="0">-</tspan><tspan class="cls-6" x="203.84" y="0">O</tspan><tspan x="275.66" y="0">wn</tspan></text><line class="cls-7" x1="2.35" y1="166.25" x2="471.35" y2="166.25"/><g class="cls-8"><g class="cls-8"><g class="cls-9"><g class="cls-8"><path class="cls-10" d="M128.13,156.69l-2.62,3.49.17-.24a4.37,4.37,0,0,0,.69-2.41,4.25,4.25,0,0,0-.71-2.36,3.93,3.93,0,0,0-1.85-1.51,11.1,11.1,0,0,0-3.8-.46l2.61-3.49a11.1,11.1,0,0,1,3.8.46,4,4,0,0,1,1.85,1.51,4.28,4.28,0,0,1,.71,2.37,4.37,4.37,0,0,1-.69,2.4,2.5,2.5,0,0,1-.16.24" transform="translate(-15.45 1.19)"/></g></g></g><polygon class="cls-11" points="107.16 150.9 104.55 154.39 99.99 154.39 102.61 150.9 107.16 150.9"/><g class="cls-8"><g class="cls-12"><g class="cls-8"><path class="cls-10" d="M130.36,158.2l-2.61,3.49a6.13,6.13,0,0,1-2.52,2,13,13,0,0,1-5.08.83l2.61-3.49a12.84,12.84,0,0,0,5.08-.83,6.13,6.13,0,0,0,2.52-2" transform="translate(-15.45 1.19)"/></g></g></g><polygon class="cls-11" points="104.11 162.2 101.5 165.69 100.04 165.69 102.65 162.2 104.11 162.2"/><polygon class="cls-11" points="113.44 174.18 110.83 177.66 101.5 165.69 104.11 162.2 113.44 174.18"/><polygon class="cls-11" points="116.63 174.18 114.02 177.66 110.83 177.66 113.44 174.18 116.63 174.18"/><polygon class="cls-11" points="100.11 174.18 97.5 177.66 97.41 151.87 100.02 148.38 100.11 174.18"/><polygon class="cls-11" points="102.69 174.18 100.08 177.66 97.5 177.66 100.11 174.18 102.69 174.18"/><path class="cls-13" d="M122.76,161l9.32,12h-3.19l-9.32-12H118.1l0,12h-2.58l-.09-25.79h5.15a30.72,30.72,0,0,1,5.83.35,6.67,6.67,0,0,1,3.74,2.25,6.47,6.47,0,0,1,1.46,4.26,6.93,6.93,0,0,1-1,3.7,6.12,6.12,0,0,1-2.83,2.42A12.84,12.84,0,0,1,122.76,161Zm-4.67-2.52,4.45,0a10.75,10.75,0,0,0,3.83-.5,3.92,3.92,0,0,0,1.92-1.57,4.37,4.37,0,0,0,.69-2.4,4.28,4.28,0,0,0-.71-2.37,4,4,0,0,0-1.85-1.51,11.1,11.1,0,0,0-3.8-.46h-4.56l0,8.77" transform="translate(-15.45 1.19)"/></g><g class="cls-8"><g class="cls-8"><g class="cls-14"><g class="cls-8"><path class="cls-10" d="M152.88,161.52,150.26,165a7.82,7.82,0,0,0-1.44-3.14,6.86,6.86,0,0,0-2.49-1.89,7.63,7.63,0,0,0-3.25-.72,7,7,0,0,0-4.83,1.8l2.61-3.48a7,7,0,0,1,4.83-1.81,7.63,7.63,0,0,1,3.25.72,6.86,6.86,0,0,1,2.49,1.89,8,8,0,0,1,1.45,3.15" transform="translate(-15.45 1.19)"/></g></g></g><g class="cls-8"><g class="cls-15"><g class="cls-8"><path class="cls-10" d="M140.86,157.57l-2.61,3.48a5.87,5.87,0,0,0-.78.86l2.61-3.49a5.79,5.79,0,0,1,.78-.85" transform="translate(-15.45 1.19)"/></g></g></g><polygon class="cls-11" points="140.13 164.83 137.52 168.32 120.34 168.32 122.95 164.83 140.13 164.83"/><g class="cls-8"><g class="cls-16"><g class="cls-8"><path class="cls-10" d="M151.91,168.14l-2.61,3.49a15.43,15.43,0,0,0,1-1.49l2.61-3.49a14.28,14.28,0,0,1-1,1.49" transform="translate(-15.45 1.19)"/></g></g></g><g class="cls-8"><g class="cls-17"><g class="cls-8"><path class="cls-10" d="M153.78,169.68l-2.61,3.49a9.6,9.6,0,0,1-1.15,1.29,9.5,9.5,0,0,1-3,1.86,10.46,10.46,0,0,1-3.79.64,9.16,9.16,0,0,1-7.31-3.06,10.37,10.37,0,0,1-2.66-6.92,10.13,10.13,0,0,1,2.07-6.29L138,157.2a10.15,10.15,0,0,0-2.07,6.29,10.37,10.37,0,0,0,2.66,6.92,9.17,9.17,0,0,0,7.31,3.06,10.68,10.68,0,0,0,3.79-.63,9.35,9.35,0,0,0,3-1.87,9.6,9.6,0,0,0,1.15-1.29" transform="translate(-15.45 1.19)"/></g></g></g><path class="cls-13" d="M150.82,169.36a11.28,11.28,0,0,0,2.07-2.71l2.08,1.09a11.17,11.17,0,0,1-2.34,3.23,9.35,9.35,0,0,1-3,1.87,10.68,10.68,0,0,1-3.79.63,9.17,9.17,0,0,1-7.31-3.06,10.37,10.37,0,0,1-2.66-6.92,10.19,10.19,0,0,1,2.2-6.46,9.11,9.11,0,0,1,7.57-3.62,9.47,9.47,0,0,1,7.81,3.71,10.36,10.36,0,0,1,2.13,6.51H138.4a7.78,7.78,0,0,0,2.15,5.45,6.83,6.83,0,0,0,5.09,2.13,8.19,8.19,0,0,0,2.84-.51A7.43,7.43,0,0,0,150.82,169.36Zm-10-11.79a8.07,8.07,0,0,0-2.21,4h14.23a8,8,0,0,0-1.45-3.15,6.86,6.86,0,0,0-2.49-1.89,7.63,7.63,0,0,0-3.25-.72,7,7,0,0,0-4.83,1.81" transform="translate(-15.45 1.19)"/></g><g class="cls-8"><polygon class="cls-11" points="163.24 159.06 160.63 162.55 158.68 163.76 161.29 160.27 163.24 159.06"/><g class="cls-8"><g class="cls-18"><g class="cls-8"><path class="cls-10" d="M176.75,159.07l-2.61,3.49a8.23,8.23,0,0,0-6.91-3.35,7.93,7.93,0,0,0-5.79,2.25,8.28,8.28,0,0,0-.84.95l2.61-3.49a8.28,8.28,0,0,1,.84-.95,7.93,7.93,0,0,1,5.79-2.25,8.26,8.26,0,0,1,6.91,3.35" transform="translate(-15.45 1.19)"/></g></g></g><g class="cls-8"><g class="cls-19"><g class="cls-8"><path class="cls-10" d="M178.43,169.57l-2.61,3.49a9.12,9.12,0,0,1-3.37,2.76A11.55,11.55,0,0,1,167.2,177a10.44,10.44,0,0,1-7.53-2.88,9.4,9.4,0,0,1-3-7,10,10,0,0,1,1.39-5.15,9,9,0,0,1,.64-1l2.61-3.49a10.84,10.84,0,0,0-.64,1,10,10,0,0,0-1.39,5.15,9.38,9.38,0,0,0,3,7,10.46,10.46,0,0,0,7.53,2.88,11.52,11.52,0,0,0,5.25-1.14,9.12,9.12,0,0,0,3.37-2.76" transform="translate(-15.45 1.19)"/></g></g></g><path class="cls-13" d="M169.93,153.41a11.83,11.83,0,0,1,3.66.58,10.28,10.28,0,0,1,3,1.51,8.32,8.32,0,0,1,2.1,2.37l-1.94,1.2a8.26,8.26,0,0,0-6.91-3.35,7.93,7.93,0,0,0-5.79,2.25,7.27,7.27,0,0,0-2.28,5.45,7.72,7.72,0,0,0,1.08,3.92,7.44,7.44,0,0,0,2.92,2.86,8.55,8.55,0,0,0,4.15,1,8.37,8.37,0,0,0,6.86-3.35l1.95,1.28a9.11,9.11,0,0,1-3.67,3.19,11.52,11.52,0,0,1-5.25,1.14,10.46,10.46,0,0,1-7.53-2.88,9.38,9.38,0,0,1-3-7,10,10,0,0,1,1.39-5.15,9.75,9.75,0,0,1,3.81-3.7A11.21,11.21,0,0,1,169.93,153.41Z" transform="translate(-15.45 1.19)"/></g><g class="cls-8"><polygon class="cls-11" points="170.1 174.18 167.49 177.66 165.03 177.66 167.64 174.18 170.1 174.18"/><polygon class="cls-11" points="167.64 174.18 165.03 177.66 164.94 151.22 167.55 147.74 167.64 174.18"/><polygon class="cls-13" points="170 147.74 170.1 174.18 167.64 174.18 167.55 147.74 170 147.74"/></g><g class="cls-8"><polygon class="cls-11" points="191.75 158.61 189.14 162.09 189.13 158.58 191.74 155.1 191.75 158.61"/><g class="cls-8"><g class="cls-20"><g class="cls-8"><path class="cls-10" d="M206.44,167.44l-2.61,3.49a7.78,7.78,0,0,0,.95-3.91,7.62,7.62,0,0,0-2.2-5.53,7.26,7.26,0,0,0-5.38-2.22,7.44,7.44,0,0,0-3.78,1,7.18,7.18,0,0,0-2.19,1.95l2.61-3.48a7.34,7.34,0,0,1,2.19-2,7.44,7.44,0,0,1,3.78-1,7.23,7.23,0,0,1,5.38,2.23,7.62,7.62,0,0,1,2.2,5.53,7.77,7.77,0,0,1-.95,3.9" transform="translate(-15.45 1.19)"/></g></g></g><g class="cls-8"><g class="cls-21"><g class="cls-8"><path class="cls-10" d="M205.93,168.23l-2.61,3.48a8.74,8.74,0,0,0,.51-.78l2.61-3.49a8.92,8.92,0,0,1-.51.79" transform="translate(-15.45 1.19)"/></g></g></g><polygon class="cls-11" points="191.81 174.18 189.2 177.66 189.19 174.39 191.8 170.9 191.81 174.18"/><polygon class="cls-11" points="194.24 174.18 191.63 177.66 189.2 177.66 191.81 174.18 194.24 174.18"/><g class="cls-8"><g class="cls-22"><g class="cls-8"><path class="cls-10" d="M207.25,169.7l-2.61,3.49a10.38,10.38,0,0,1-3.45,2.82,9.25,9.25,0,0,1-4.2,1,9.4,9.4,0,0,1-6.94-2.93,9.9,9.9,0,0,1-2.89-7.15,9.56,9.56,0,0,1,1.9-5.93l2.61-3.49a9.56,9.56,0,0,0-1.9,5.93,9.9,9.9,0,0,0,2.89,7.15,9.36,9.36,0,0,0,6.94,2.93,9.25,9.25,0,0,0,4.2-.95,10.38,10.38,0,0,0,3.45-2.82" transform="translate(-15.45 1.19)"/></g></g></g><path class="cls-13" d="M207.2,153.9h2.42l.07,19.08h-2.42l0-3.28a10.38,10.38,0,0,1-3.45,2.82,9.25,9.25,0,0,1-4.2.95,9.36,9.36,0,0,1-6.94-2.93,9.9,9.9,0,0,1-2.89-7.15,9.6,9.6,0,0,1,2.87-7,9.43,9.43,0,0,1,7-2.93,9.09,9.09,0,0,1,4.25,1,9.71,9.71,0,0,1,3.36,3Zm-.76,13.54a7.77,7.77,0,0,0,.95-3.9,7.62,7.62,0,0,0-2.2-5.53,7.23,7.23,0,0,0-5.38-2.23,7.38,7.38,0,0,0-6.54,3.83,7.73,7.73,0,0,0,0,7.71,7.48,7.48,0,0,0,2.79,2.87,7.28,7.28,0,0,0,3.74,1,7.69,7.69,0,0,0,3.82-1,7.23,7.23,0,0,0,2.78-2.76" transform="translate(-15.45 1.19)"/></g><g class="cls-8"><g class="cls-8"><g class="cls-23"><g class="cls-8"><path class="cls-10" d="M217.62,149.27,215,152.76a2.2,2.2,0,0,1-.2.23,1.93,1.93,0,0,1-1.43.59,2,2,0,0,1-2-2,2,2,0,0,1,.38-1.2l2.61-3.49a2,2,0,0,0-.38,1.2,2,2,0,0,0,2,2,1.94,1.94,0,0,0,1.43-.6,2.2,2.2,0,0,0,.2-.23" transform="translate(-15.45 1.19)"/></g></g></g><path class="cls-13" d="M217.41,146.65a2,2,0,0,1,.59,1.43,1.9,1.9,0,0,1-.58,1.42,1.94,1.94,0,0,1-1.43.6,2,2,0,0,1-1.43-3.45,1.88,1.88,0,0,1,1.42-.6A1.92,1.92,0,0,1,217.41,146.65Z" transform="translate(-15.45 1.19)"/></g><g class="cls-8"><polygon class="cls-11" points="199.4 174.18 196.79 177.66 196.72 158.58 199.33 155.1 199.4 174.18"/><polygon class="cls-11" points="201.86 174.18 199.25 177.66 196.79 177.66 199.4 174.18 201.86 174.18"/><polygon class="cls-13" points="199.4 174.18 199.33 155.1 201.79 155.1 201.86 174.18 199.4 174.18"/></g><g class="cls-8"><g class="cls-8"><g class="cls-24"><g class="cls-8"><path class="cls-10" d="M248.41,162.57l-2.61,3.48a14,14,0,0,0-.45-4.22,3.83,3.83,0,0,0-1.51-1.85,4.49,4.49,0,0,0-2.52-.7,5.49,5.49,0,0,0-3.26,1.05,5.9,5.9,0,0,0-1.31,1.28l2.61-3.49a5.65,5.65,0,0,1,1.31-1.27,5.49,5.49,0,0,1,3.26-1,4.41,4.41,0,0,1,2.52.7,3.74,3.74,0,0,1,1.51,1.85,13.88,13.88,0,0,1,.45,4.22" transform="translate(-15.45 1.19)"/></g></g></g><g class="cls-8"><g class="cls-25"><g class="cls-8"><path class="cls-10" d="M237.4,158l-2.61,3.49a11,11,0,0,1,.85-1.34l2.61-3.49a11.79,11.79,0,0,0-.85,1.34" transform="translate(-15.45 1.19)"/></g></g></g><polygon class="cls-11" points="232.99 174.18 230.38 177.66 230.34 167.25 232.96 163.76 232.99 174.18"/><polygon class="cls-11" points="235.51 174.18 232.9 177.66 230.38 177.66 232.99 174.18 235.51 174.18"/><g class="cls-8"><g class="cls-26"><g class="cls-8"><path class="cls-10" d="M235.39,163.21l-2.61,3.49a16.82,16.82,0,0,0-.45-4.69,3.91,3.91,0,0,0-1.51-2,4.41,4.41,0,0,0-2.55-.75,5.47,5.47,0,0,0-3.17,1,5.86,5.86,0,0,0-1.39,1.33l2.62-3.49a5.63,5.63,0,0,1,1.38-1.33,5.47,5.47,0,0,1,3.18-1,4.37,4.37,0,0,1,2.54.74,3.94,3.94,0,0,1,1.51,2,16.68,16.68,0,0,1,.45,4.68" transform="translate(-15.45 1.19)"/></g></g></g><g class="cls-8"><g class="cls-27"><g class="cls-8"><path class="cls-10" d="M224.8,157.2l-2.61,3.49.24-.35,2.61-3.48-.24.34" transform="translate(-15.45 1.19)"/></g></g></g><polygon class="cls-11" points="219.97 174.18 217.36 177.66 217.32 167.9 219.93 164.41 219.97 174.18"/><polygon class="cls-11" points="222.43 174.18 219.82 177.66 217.36 177.66 219.97 174.18 222.43 174.18"/><polygon class="cls-11" points="209.4 174.18 206.79 177.66 204.34 177.66 206.95 174.18 209.4 174.18"/><path class="cls-13" d="M244.41,153.41a6.23,6.23,0,0,1,3.49,1,6,6,0,0,1,2.27,2.79,14.78,14.78,0,0,1,.76,5.37L251,173h-2.51l0-10.41a13.88,13.88,0,0,0-.45-4.22,3.74,3.74,0,0,0-1.51-1.85,4.41,4.41,0,0,0-2.52-.7,5.49,5.49,0,0,0-3.26,1,6,6,0,0,0-2.15,2.81,17.66,17.66,0,0,0-.66,5.85l0,7.47h-2.47l0-9.77a16.68,16.68,0,0,0-.45-4.68,3.94,3.94,0,0,0-1.51-2,4.37,4.37,0,0,0-2.54-.74,5.47,5.47,0,0,0-3.18,1,6,6,0,0,0-2.19,2.77,14.76,14.76,0,0,0-.69,5.31l0,8.08H222.4l-.07-19.08h2.45l0,3.3a9.68,9.68,0,0,1,2.63-2.67,7.52,7.52,0,0,1,3.91-1.12A6.61,6.61,0,0,1,234,154a5.61,5.61,0,0,1,2,1.44A7.61,7.61,0,0,1,237.4,158a9.09,9.09,0,0,1,3-3.41A7.26,7.26,0,0,1,244.41,153.41Z" transform="translate(-15.45 1.19)"/><polygon class="cls-11" points="206.95 174.18 204.34 177.66 204.27 158.58 206.88 155.1 206.95 174.18"/></g><g class="cls-8"><g class="cls-8"><g class="cls-28"><g class="cls-8"><path class="cls-29" d="M300.84,167.41l-2.61,3.48a7.71,7.71,0,0,0,1-3.86,7.55,7.55,0,0,0-2.23-5.47,7.25,7.25,0,0,0-10.52,0,10.5,10.5,0,0,0-.7.82l2.61-3.49a8.82,8.82,0,0,1,.7-.81,7.23,7.23,0,0,1,10.52,0,7.58,7.58,0,0,1,2.24,5.46,7.89,7.89,0,0,1-1,3.87" transform="translate(-15.45 1.19)"/></g></g></g><g class="cls-8"><g class="cls-30"><g class="cls-8"><path class="cls-29" d="M300.28,168.28l-2.61,3.49a8.76,8.76,0,0,0,.56-.88l2.61-3.48a7.62,7.62,0,0,1-.56.87" transform="translate(-15.45 1.19)"/></g></g></g><g class="cls-8"><g class="cls-31"><g class="cls-8"><path class="cls-29" d="M302.34,169.55,299.73,173a9.61,9.61,0,0,1-.78.93,9.3,9.3,0,0,1-7.15,3,9.41,9.41,0,0,1-7.2-3,10,10,0,0,1-2.81-7,9.8,9.8,0,0,1,2-6.08l2.61-3.49a9.8,9.8,0,0,0-2,6.08,10,10,0,0,0,2.81,7,9.41,9.41,0,0,0,7.2,3,9.3,9.3,0,0,0,7.15-3,8.36,8.36,0,0,0,.78-.93" transform="translate(-15.45 1.19)"/></g></g></g><path class="cls-32" d="M301.67,156.6a10.26,10.26,0,0,1-.11,13.88,9.3,9.3,0,0,1-7.15,3,9.41,9.41,0,0,1-7.2-3,10,10,0,0,1-2.81-7,9.83,9.83,0,0,1,2.62-6.87,9.44,9.44,0,0,1,7.32-3.21A9.55,9.55,0,0,1,301.67,156.6Zm-.83,10.81a7.89,7.89,0,0,0,1-3.87,7.58,7.58,0,0,0-2.24-5.46,7.23,7.23,0,0,0-10.52,0,7.48,7.48,0,0,0-2.18,5.46,7.79,7.79,0,0,0,1,3.87,7.21,7.21,0,0,0,2.72,2.76,7.75,7.75,0,0,0,7.51,0,7,7,0,0,0,2.7-2.76" transform="translate(-15.45 1.19)"/></g><g class="cls-8"><polygon class="cls-33" points="257.73 169.79 255.12 173.28 261.44 158.58 264.05 155.1 257.73 169.79"/><polygon class="cls-33" points="256.42 172.73 253.81 176.22 245.91 158.58 248.52 155.1 256.42 172.73"/><polygon class="cls-33" points="252.77 181.15 250.16 184.64 253.81 176.22 256.42 172.73 252.77 181.15"/><polygon class="cls-33" points="255.37 181.15 252.76 184.64 250.16 184.64 252.77 181.15 255.37 181.15"/><polygon class="cls-32" points="266.66 155.1 255.37 181.15 252.77 181.15 256.42 172.73 248.52 155.1 251.11 155.1 257.73 169.79 264.05 155.1 266.66 155.1"/></g><g class="cls-8"><polygon class="cls-33" points="307.3 164 304.69 167.49 304.66 158.58 307.27 155.1 307.3 164"/><g class="cls-8"><g class="cls-34"><g class="cls-8"><path class="cls-29" d="M321.66,168.93,319,172.42a4.94,4.94,0,0,0,.75-1.44,18.8,18.8,0,0,0,.36-4.68l2.61-3.49a18.9,18.9,0,0,1-.36,4.69,4.86,4.86,0,0,1-.74,1.43" transform="translate(-15.45 1.19)"/></g></g></g><polygon class="cls-33" points="293.1 164.29 290.49 167.78 290.46 158.58 293.07 155.1 293.1 164.29"/><g class="cls-8"><g class="cls-35"><g class="cls-8"><path class="cls-29" d="M323.57,170.56,321,174.05a7,7,0,0,1-2,1.78,8.67,8.67,0,0,1-4.64,1.13,8.82,8.82,0,0,1-4.66-1.13,7,7,0,0,1-2.8-3.16,15.38,15.38,0,0,1-.94-6.09l2.61-3.48a15.33,15.33,0,0,0,.94,6.08,7,7,0,0,0,2.8,3.16,8.82,8.82,0,0,0,4.66,1.13,8.67,8.67,0,0,0,4.64-1.13,6.86,6.86,0,0,0,2-1.78" transform="translate(-15.45 1.19)"/></g></g></g><path class="cls-32" d="M325.23,153.9l0,9.37a14.9,14.9,0,0,1-.9,5.94,7,7,0,0,1-2.77,3.13,8.67,8.67,0,0,1-4.64,1.13,8.82,8.82,0,0,1-4.66-1.13,7,7,0,0,1-2.8-3.16,15.33,15.33,0,0,1-.94-6.08l0-9.2H311l0,8.91a19,19,0,0,0,.37,4.49,5,5,0,0,0,2,2.77,6.67,6.67,0,0,0,7,0,5.1,5.1,0,0,0,2-2.6,18.9,18.9,0,0,0,.36-4.69l0-8.91Z" transform="translate(-15.45 1.19)"/></g><g class="cls-8"><g class="cls-8"><g class="cls-36"><g class="cls-8"><path class="cls-29" d="M338.15,156.13l-2.62,3.49a3.34,3.34,0,0,0-1.3-.34,3.57,3.57,0,0,0-2.37,1,4.47,4.47,0,0,0-.58.64l2.61-3.49a4.47,4.47,0,0,1,.58-.64,3.55,3.55,0,0,1,2.37-1,3.38,3.38,0,0,1,1.31.33" transform="translate(-15.45 1.19)"/></g></g></g><g class="cls-8"><g class="cls-37"><g class="cls-8"><path class="cls-29" d="M332.28,156.69l-2.61,3.49.34-.48,2.61-3.48-.34.47" transform="translate(-15.45 1.19)"/></g></g></g><polygon class="cls-33" points="314.38 174.18 311.77 177.66 311.7 158.58 314.31 155.1 314.38 174.18"/><polygon class="cls-33" points="316.88 174.18 314.27 177.66 311.77 177.66 314.38 174.18 316.88 174.18"/><path class="cls-32" d="M337.24,153.41a4.48,4.48,0,0,1,2.17.65l-1.26,2.07a3.38,3.38,0,0,0-1.31-.33,3.55,3.55,0,0,0-2.37,1,6.43,6.43,0,0,0-1.72,3.14,29.86,29.86,0,0,0-.44,6.59l0,6.45h-2.51l-.07-19.08h2.51v2.79a8.87,8.87,0,0,1,2.36-2.46A4.72,4.72,0,0,1,337.24,153.41Z" transform="translate(-15.45 1.19)"/></g><g class="cls-8"><polygon class="cls-38" points="345.61 157.19 343 160.68 341.43 162.3 344.04 158.81 345.61 157.19"/><g class="cls-8"><g class="cls-39"><g class="cls-8"><path class="cls-29" d="M359.5,157.62l-2.61,3.49a5.72,5.72,0,0,0-3.87-1.92,2.9,2.9,0,0,0-2,.79,3.55,3.55,0,0,0-.38.41l2.62-3.48a2.8,2.8,0,0,1,.37-.41,2.9,2.9,0,0,1,2-.79,5.71,5.71,0,0,1,3.87,1.91" transform="translate(-15.45 1.19)"/></g></g></g><g class="cls-8"><g class="cls-40"><g class="cls-8"><path class="cls-29" d="M358.22,169.69l-2.61,3.49a2.75,2.75,0,0,0,.58-1.72,2.9,2.9,0,0,0-.7-1.88,11,11,0,0,0-3.1-2,9.76,9.76,0,0,1-3.53-2.63,5.21,5.21,0,0,1,0-6l2.61-3.49a5.23,5.23,0,0,0,0,6,10,10,0,0,0,3.53,2.63,11.06,11.06,0,0,1,3.1,2,2.9,2.9,0,0,1,.7,1.88,2.75,2.75,0,0,1-.58,1.72" transform="translate(-15.45 1.19)"/></g></g></g><g class="cls-8"><g class="cls-41"><g class="cls-8"><path class="cls-29" d="M360.07,171.18l-2.61,3.48a7.32,7.32,0,0,1-.58.67,5.65,5.65,0,0,1-4.12,1.63,7.2,7.2,0,0,1-3.16-.72,6.88,6.88,0,0,1-2.5-2l2.61-3.49a6.9,6.9,0,0,0,2.5,2,7.33,7.33,0,0,0,3.16.71,5.61,5.61,0,0,0,4.12-1.63,7.21,7.21,0,0,0,.58-.66" transform="translate(-15.45 1.19)"/></g></g></g><path class="cls-32" d="M355.75,153.41a7.79,7.79,0,0,1,5.31,2.58l-1.56,1.63a5.71,5.71,0,0,0-3.87-1.91,2.9,2.9,0,0,0-2,.79,2.4,2.4,0,0,0-.85,1.84,2.77,2.77,0,0,0,.71,1.78,10.39,10.39,0,0,0,3,2,11.12,11.12,0,0,1,3.74,2.73,5,5,0,0,1,1,3,5.33,5.33,0,0,1-1.63,4,5.61,5.61,0,0,1-4.12,1.63,7.33,7.33,0,0,1-3.16-.71,6.9,6.9,0,0,1-2.5-2l1.54-1.75a5.42,5.42,0,0,0,4,2.12,3.57,3.57,0,0,0,2.51-.94,3,3,0,0,0,1-2.23,2.9,2.9,0,0,0-.7-1.88,11.06,11.06,0,0,0-3.1-2,10,10,0,0,1-3.53-2.63,4.91,4.91,0,0,1-.94-3,4.77,4.77,0,0,1,1.47-3.61A5.14,5.14,0,0,1,355.75,153.41Z" transform="translate(-15.45 1.19)"/></g><g class="cls-8"><polygon class="cls-33" points="369.3 169.79 366.69 173.28 373.01 158.58 375.62 155.1 369.3 169.79"/><polygon class="cls-33" points="367.99 172.73 365.38 176.22 357.48 158.58 360.09 155.1 367.99 172.73"/><polygon class="cls-33" points="364.35 181.15 361.74 184.64 365.38 176.22 367.99 172.73 364.35 181.15"/><polygon class="cls-33" points="366.94 181.15 364.33 184.64 361.74 184.64 364.35 181.15 366.94 181.15"/><polygon class="cls-32" points="378.24 155.1 366.94 181.15 364.35 181.15 367.99 172.73 360.09 155.1 362.69 155.1 369.3 169.79 375.62 155.1 378.24 155.1"/></g><g class="cls-8"><polygon class="cls-33" points="352.1 155.1 349.49 158.58 349.46 151.5 352.07 148.01 352.1 155.1"/><polygon class="cls-33" points="358.46 157.22 355.85 160.7 351.96 160.7 354.57 157.22 358.46 157.22"/><polygon class="cls-33" points="352.11 157.22 349.5 160.7 346.14 160.7 348.75 157.22 352.11 157.22"/><polygon class="cls-33" points="348.75 157.22 346.14 160.7 346.14 158.58 348.75 155.1 348.75 157.22"/><polygon class="cls-33" points="352.17 174.18 349.56 177.66 349.5 160.7 352.11 157.22 352.17 174.18"/><polygon class="cls-33" points="354.63 174.18 352.02 177.66 349.56 177.66 352.17 174.18 354.63 174.18"/><polygon class="cls-32" points="354.54 148.01 354.56 155.1 358.45 155.1 358.46 157.22 354.57 157.22 354.63 174.18 352.17 174.18 352.11 157.22 348.75 157.22 348.75 155.1 352.1 155.1 352.07 148.01 354.54 148.01"/></g><g class="cls-8"><polygon class="cls-33" points="383.57 174.18 380.96 177.66 378.51 177.66 381.12 174.18 383.57 174.18"/><polygon class="cls-33" points="381.12 174.18 378.51 177.66 378.41 151.22 381.02 147.74 381.12 174.18"/><polygon class="cls-32" points="383.48 147.74 383.57 174.18 381.12 174.18 381.02 147.74 383.48 147.74"/></g><g class="cls-8"><g class="cls-8"><g class="cls-42"><g class="cls-8"><path class="cls-29" d="M420.18,161.52,417.57,165a8.26,8.26,0,0,0-1.45-3.14,6.86,6.86,0,0,0-2.49-1.89,7.67,7.67,0,0,0-3.26-.72,7,7,0,0,0-4.82,1.8l2.61-3.48a7,7,0,0,1,4.82-1.81,7.64,7.64,0,0,1,3.26.72,6.77,6.77,0,0,1,2.49,1.89,8.23,8.23,0,0,1,1.45,3.15" transform="translate(-15.45 1.19)"/></g></g></g><g class="cls-8"><g class="cls-43"><g class="cls-8"><path class="cls-29" d="M408.16,157.57l-2.61,3.48a5.87,5.87,0,0,0-.78.86l2.61-3.49a5.79,5.79,0,0,1,.78-.85" transform="translate(-15.45 1.19)"/></g></g></g><polygon class="cls-33" points="407.43 164.83 404.82 168.32 387.63 168.32 390.24 164.83 407.43 164.83"/><g class="cls-8"><g class="cls-44"><g class="cls-8"><path class="cls-29" d="M419.21,168.14l-2.61,3.49c.31-.43.64-.92,1-1.49l2.61-3.49c-.35.57-.67,1.07-1,1.49" transform="translate(-15.45 1.19)"/></g></g></g><g class="cls-8"><g class="cls-45"><g class="cls-8"><path class="cls-29" d="M421.09,169.66l-2.61,3.49a10,10,0,0,1-1.17,1.31,9.39,9.39,0,0,1-3,1.86,10.39,10.39,0,0,1-3.77.64,9.19,9.19,0,0,1-7.33-3.06,10.37,10.37,0,0,1-2.66-6.92,10.13,10.13,0,0,1,2.07-6.29l2.61-3.49a10.22,10.22,0,0,0-2.07,6.29,10.37,10.37,0,0,0,2.66,6.92,9.19,9.19,0,0,0,7.33,3.06,10.61,10.61,0,0,0,3.77-.63,9.38,9.38,0,0,0,4.16-3.18" transform="translate(-15.45 1.19)"/></g></g></g><path class="cls-32" d="M418.11,169.36a11.27,11.27,0,0,0,2.09-2.71l2.07,1.09a11.19,11.19,0,0,1-2.35,3.23,9.24,9.24,0,0,1-3,1.87,10.61,10.61,0,0,1-3.77.63,9.19,9.19,0,0,1-7.33-3.06,10.37,10.37,0,0,1-2.66-6.92,10.14,10.14,0,0,1,2.21-6.46,9.1,9.1,0,0,1,7.56-3.62,9.46,9.46,0,0,1,7.81,3.71,10.24,10.24,0,0,1,2.13,6.51H405.7a7.78,7.78,0,0,0,2.15,5.45,6.79,6.79,0,0,0,5.08,2.13,8.1,8.1,0,0,0,2.84-.51A7.21,7.21,0,0,0,418.11,169.36Zm-9.95-11.79a8.08,8.08,0,0,0-2.22,4h14.24a8.23,8.23,0,0,0-1.45-3.15,6.77,6.77,0,0,0-2.49-1.89,7.64,7.64,0,0,0-3.26-.72,7,7,0,0,0-4.82,1.81" transform="translate(-15.45 1.19)"/></g></svg>