<svg id="visual" viewBox="0 0 900 675" width="900" height="675" xmlns="http://www.w3.org/2000/svg" xmlns:xlink="http://www.w3.org/1999/xlink" version="1.1"><path d="M0 291L18.8 292.2C37.7 293.3 75.3 295.7 112.8 265.3C150.3 235 187.7 172 225.2 152.8C262.7 133.7 300.3 158.3 337.8 184.2C375.3 210 412.7 237 450.2 220.2C487.7 203.3 525.3 142.7 562.8 121.3C600.3 100 637.7 118 675.2 128.2C712.7 138.3 750.3 140.7 787.8 139.5C825.3 138.3 862.7 133.7 881.3 131.3L900 129L900 0L881.3 0C862.7 0 825.3 0 787.8 0C750.3 0 712.7 0 675.2 0C637.7 0 600.3 0 562.8 0C525.3 0 487.7 0 450.2 0C412.7 0 375.3 0 337.8 0C300.3 0 262.7 0 225.2 0C187.7 0 150.3 0 112.8 0C75.3 0 37.7 0 18.8 0L0 0Z" fill="#ffffff"></path><path d="M0 366L18.8 370.5C37.7 375 75.3 384 112.8 349C150.3 314 187.7 235 225.2 211.3C262.7 187.7 300.3 219.3 337.8 252C375.3 284.7 412.7 318.3 450.2 306C487.7 293.7 525.3 235.3 562.8 206.2C600.3 177 637.7 177 675.2 178C712.7 179 750.3 181 787.8 185.5C825.3 190 862.7 197 881.3 200.5L900 204L900 127L881.3 129.3C862.7 131.7 825.3 136.3 787.8 137.5C750.3 138.7 712.7 136.3 675.2 126.2C637.7 116 600.3 98 562.8 119.3C525.3 140.7 487.7 201.3 450.2 218.2C412.7 235 375.3 208 337.8 182.2C300.3 156.3 262.7 131.7 225.2 150.8C187.7 170 150.3 233 112.8 263.3C75.3 293.7 37.7 291.3 18.8 290.2L0 289Z" fill="#c7bbd1"></path><path d="M0 460L18.8 460C37.7 460 75.3 460 112.8 417.3C150.3 374.7 187.7 289.3 225.2 284.8C262.7 280.3 300.3 356.7 337.8 396C375.3 435.3 412.7 437.7 450.2 423C487.7 408.3 525.3 376.7 562.8 363.2C600.3 349.7 637.7 354.3 675.2 354.3C712.7 354.3 750.3 349.7 787.8 358.7C825.3 367.7 862.7 390.3 881.3 401.7L900 413L900 202L881.3 198.5C862.7 195 825.3 188 787.8 183.5C750.3 179 712.7 177 675.2 176C637.7 175 600.3 175 562.8 204.2C525.3 233.3 487.7 291.7 450.2 304C412.7 316.3 375.3 282.7 337.8 250C300.3 217.3 262.7 185.7 225.2 209.3C187.7 233 150.3 312 112.8 347C75.3 382 37.7 373 18.8 368.5L0 364Z" fill="#907ba5"></path><path d="M0 548L18.8 548C37.7 548 75.3 548 112.8 515.3C150.3 482.7 187.7 417.3 225.2 410.5C262.7 403.7 300.3 455.3 337.8 484.7C375.3 514 412.7 521 450.2 515.3C487.7 509.7 525.3 491.3 562.8 477.8C600.3 464.3 637.7 455.7 675.2 450.2C712.7 444.7 750.3 442.3 787.8 443.3C825.3 444.3 862.7 448.7 881.3 450.8L900 453L900 411L881.3 399.7C862.7 388.3 825.3 365.7 787.8 356.7C750.3 347.7 712.7 352.3 675.2 352.3C637.7 352.3 600.3 347.7 562.8 361.2C525.3 374.7 487.7 406.3 450.2 421C412.7 435.7 375.3 433.3 337.8 394C300.3 354.7 262.7 278.3 225.2 282.8C187.7 287.3 150.3 372.7 112.8 415.3C75.3 458 37.7 458 18.8 458L0 458Z" fill="#5b407a"></path><path d="M0 676L18.8 676C37.7 676 75.3 676 112.8 676C150.3 676 187.7 676 225.2 676C262.7 676 300.3 676 337.8 676C375.3 676 412.7 676 450.2 676C487.7 676 525.3 676 562.8 676C600.3 676 637.7 676 675.2 676C712.7 676 750.3 676 787.8 676C825.3 676 862.7 676 881.3 676L900 676L900 451L881.3 448.8C862.7 446.7 825.3 442.3 787.8 441.3C750.3 440.3 712.7 442.7 675.2 448.2C637.7 453.7 600.3 462.3 562.8 475.8C525.3 489.3 487.7 507.7 450.2 513.3C412.7 519 375.3 512 337.8 482.7C300.3 453.3 262.7 401.7 225.2 408.5C187.7 415.3 150.3 480.7 112.8 513.3C75.3 546 37.7 546 18.8 546L0 546Z" fill="#240651"></path></svg>