<svg id="visual" viewBox="0 0 960 300" width="960" height="300" xmlns="http://www.w3.org/2000/svg" xmlns:xlink="http://www.w3.org/1999/xlink" version="1.1"><rect x="0" y="0" width="960" height="300" fill="#ffffff"></rect><path d="M0 137L16 131C32 125 64 113 96 109.2C128 105.3 160 109.7 192 113.2C224 116.7 256 119.3 288 119.3C320 119.3 352 116.7 384 114.3C416 112 448 110 480 111.3C512 112.7 544 117.3 576 123.3C608 129.3 640 136.7 672 140.7C704 144.7 736 145.3 768 139.5C800 133.7 832 121.3 864 119.3C896 117.3 928 125.7 944 129.8L960 134L960 301L944 301C928 301 896 301 864 301C832 301 800 301 768 301C736 301 704 301 672 301C640 301 608 301 576 301C544 301 512 301 480 301C448 301 416 301 384 301C352 301 320 301 288 301C256 301 224 301 192 301C160 301 128 301 96 301C64 301 32 301 16 301L0 301Z" fill="#ffffff"></path><path d="M0 139L16 141C32 143 64 147 96 149.8C128 152.7 160 154.3 192 159.3C224 164.3 256 172.7 288 173C320 173.3 352 165.7 384 159.5C416 153.3 448 148.7 480 149.5C512 150.3 544 156.7 576 163C608 169.3 640 175.7 672 172.5C704 169.3 736 156.7 768 153.2C800 149.7 832 155.3 864 154.5C896 153.7 928 146.3 944 142.7L960 139L960 301L944 301C928 301 896 301 864 301C832 301 800 301 768 301C736 301 704 301 672 301C640 301 608 301 576 301C544 301 512 301 480 301C448 301 416 301 384 301C352 301 320 301 288 301C256 301 224 301 192 301C160 301 128 301 96 301C64 301 32 301 16 301L0 301Z" fill="#fffaf2"></path><path d="M0 198L16 195.7C32 193.3 64 188.7 96 184.2C128 179.7 160 175.3 192 180.2C224 185 256 199 288 203.3C320 207.7 352 202.3 384 194.8C416 187.3 448 177.7 480 176.3C512 175 544 182 576 189.3C608 196.7 640 204.3 672 205.7C704 207 736 202 768 202.8C800 203.7 832 210.3 864 207.8C896 205.3 928 193.7 944 187.8L960 182L960 301L944 301C928 301 896 301 864 301C832 301 800 301 768 301C736 301 704 301 672 301C640 301 608 301 576 301C544 301 512 301 480 301C448 301 416 301 384 301C352 301 320 301 288 301C256 301 224 301 192 301C160 301 128 301 96 301C64 301 32 301 16 301L0 301Z" fill="#fff6e6"></path><path d="M0 253L16 250.2C32 247.3 64 241.7 96 240.7C128 239.7 160 243.3 192 245C224 246.7 256 246.3 288 243.8C320 241.3 352 236.7 384 235.5C416 234.3 448 236.7 480 238C512 239.3 544 239.7 576 236.5C608 233.3 640 226.7 672 224C704 221.3 736 222.7 768 223.7C800 224.7 832 225.3 864 223.5C896 221.7 928 217.3 944 215.2L960 213L960 301L944 301C928 301 896 301 864 301C832 301 800 301 768 301C736 301 704 301 672 301C640 301 608 301 576 301C544 301 512 301 480 301C448 301 416 301 384 301C352 301 320 301 288 301C256 301 224 301 192 301C160 301 128 301 96 301C64 301 32 301 16 301L0 301Z" fill="#fff2d9"></path><path d="M0 274L16 268.5C32 263 64 252 96 245.8C128 239.7 160 238.3 192 242.2C224 246 256 255 288 258.5C320 262 352 260 384 255.3C416 250.7 448 243.3 480 246.2C512 249 544 262 576 267.7C608 273.3 640 271.7 672 270.7C704 269.7 736 269.3 768 269.5C800 269.7 832 270.3 864 272C896 273.7 928 276.3 944 277.7L960 279L960 301L944 301C928 301 896 301 864 301C832 301 800 301 768 301C736 301 704 301 672 301C640 301 608 301 576 301C544 301 512 301 480 301C448 301 416 301 384 301C352 301 320 301 288 301C256 301 224 301 192 301C160 301 128 301 96 301C64 301 32 301 16 301L0 301Z" fill="#ffeecd"></path></svg>