<svg id="visual" viewBox="0 0 960 540" width="960" height="540" xmlns="http://www.w3.org/2000/svg" xmlns:xlink="http://www.w3.org/1999/xlink" version="1.1"><path d="M0 531L17.8 515.5C35.7 500 71.3 469 106.8 459.3C142.3 449.7 177.7 461.3 213.2 474.5C248.7 487.7 284.3 502.3 320 490.8C355.7 479.3 391.3 441.7 426.8 432.7C462.3 423.7 497.7 443.3 533.2 465.3C568.7 487.3 604.3 511.7 640 507.2C675.7 502.7 711.3 469.3 746.8 456.2C782.3 443 817.7 450 853.2 448.5C888.7 447 924.3 437 942.2 432L960 427L960 541L942.2 541C924.3 541 888.7 541 853.2 541C817.7 541 782.3 541 746.8 541C711.3 541 675.7 541 640 541C604.3 541 568.7 541 533.2 541C497.7 541 462.3 541 426.8 541C391.3 541 355.7 541 320 541C284.3 541 248.7 541 213.2 541C177.7 541 142.3 541 106.8 541C71.3 541 35.7 541 17.8 541L0 541Z" fill="#ff6300" stroke-linecap="round" stroke-linejoin="miter"></path></svg>